<svg width="24" height="24" viewBox="0 0 24 24" fill="none" xmlns="http://www.w3.org/2000/svg">
  <title>TrailGuide AI Assistant</title>
  <circle cx="12" cy="12" r="12" fill="url(#assistantGradient)"/>
  <path d="M12 4C8.69 4 6 6.69 6 10C6 13.5 12 20 12 20S18 13.5 18 10C18 6.69 15.31 4 12 4Z" fill="white"/>
  <circle cx="12" cy="10" r="3" fill="url(#assistantGradient)"/>
  <path d="M10.5 9H13.5C13.78 9 14 9.22 14 9.5V10.5C14 10.78 13.78 11 13.5 11H12L11.5 11.5L11 11H10.5C10.22 11 10 10.78 10 10.5V9.5C10 9.22 10.22 9 10.5 9Z" fill="white"/>
  <defs>
    <linearGradient id="assistantGradient" x1="0%" y1="0%" x2="100%" y2="100%">
      <stop offset="0%" style="stop-color:#8B5CF6;stop-opacity:1" />
      <stop offset="100%" style="stop-color:#A855F7;stop-opacity:1" />
    </linearGradient>
  </defs>
</svg>