<svg viewBox="0 0 24 24" fill="none" xmlns="http://www.w3.org/2000/svg">
  <title>Fire Logo</title>
  <desc>A stylized fire icon representing TaskTrail's energy and motivation</desc>
  
  <!-- Main flame -->
  <path d="M12 2C12 2 8 6 8 10C8 12.21 9.79 14 12 14C14.21 14 16 12.21 16 10C16 6 12 2 12 2Z" 
        fill="url(#fireGradient1)" 
        stroke="#FF4500" 
        strokeWidth="0.5"/>
  
  <!-- Inner flame -->
  <path d="M12 4C12 4 10 7 10 9C10 10.1 10.9 11 12 11C13.1 11 14 10.1 14 9C14 7 12 4 12 4Z" 
        fill="url(#fireGradient2)"/>
  
  <!-- Base flame -->
  <path d="M12 14C12 14 6 16 6 19C6 21.21 8.79 22 12 22C15.21 22 18 21.21 18 19C18 16 12 14 12 14Z" 
        fill="url(#fireGradient3)" 
        stroke="#FF6B35" 
        strokeWidth="0.5"/>
  
  <!-- Spark effects -->
  <circle cx="8" cy="12" r="1" fill="#FFD700" opacity="0.8">
    <animate attributeName="opacity" values="0.8;0.3;0.8" dur="2s" repeatCount="indefinite"/>
  </circle>
  <circle cx="16" cy="13" r="0.8" fill="#FF8C00" opacity="0.6">
    <animate attributeName="opacity" values="0.6;0.2;0.6" dur="1.5s" repeatCount="indefinite"/>
  </circle>
  <circle cx="10" cy="16" r="0.6" fill="#FFD700" opacity="0.7">
    <animate attributeName="opacity" values="0.7;0.3;0.7" dur="1.8s" repeatCount="indefinite"/>
  </circle>
  
  <defs>
    <!-- Fire gradient 1 - Main flame -->
    <linearGradient id="fireGradient1" x1="0%" y1="100%" x2="0%" y2="0%">
      <stop offset="0%" stopColor="#FF4500"/>
      <stop offset="50%" stopColor="#FF6B35"/>
      <stop offset="100%" stopColor="#FFD700"/>
    </linearGradient>
    
    <!-- Fire gradient 2 - Inner flame -->
    <linearGradient id="fireGradient2" x1="0%" y1="100%" x2="0%" y2="0%">
      <stop offset="0%" stopColor="#FF6B35"/>
      <stop offset="50%" stopColor="#FF8C00"/>
      <stop offset="100%" stopColor="#FFFF00"/>
    </linearGradient>
    
    <!-- Fire gradient 3 - Base flame -->
    <linearGradient id="fireGradient3" x1="0%" y1="100%" x2="0%" y2="0%">
      <stop offset="0%" stopColor="#8B0000"/>
      <stop offset="30%" stopColor="#FF4500"/>
      <stop offset="70%" stopColor="#FF6B35"/>
      <stop offset="100%" stopColor="#FF8C00"/>
    </linearGradient>
  </defs>
</svg>